<?xml version="1.0" encoding="UTF-8" standalone="no"?>
<svg
   xmlns:dc="http://purl.org/dc/elements/1.1/"
   xmlns:cc="http://creativecommons.org/ns#"
   xmlns:rdf="http://www.w3.org/1999/02/22-rdf-syntax-ns#"
   xmlns:svg="http://www.w3.org/2000/svg"
   xmlns="http://www.w3.org/2000/svg"
   version="1.1"
   id="svg833"
   width="301"
   height="361"
   viewBox="0 0 301 361">
  <metadata
     id="metadata839">
    <rdf:RDF>
      <cc:Work
         rdf:about="">
        <dc:format>image/svg+xml</dc:format>
        <dc:type
           rdf:resource="http://purl.org/dc/dcmitype/StillImage" />
        <dc:title></dc:title>
      </cc:Work>
    </rdf:RDF>
  </metadata>
  <defs
     id="defs837" />
  <g
     id="g841">
    <path
       id="path859"
       style="fill:#ff0000;stroke:#000000;stroke-width:1px;stroke-linecap:butt;stroke-linejoin:miter;stroke-opacity:1"
       d="m 36.988774,27.203953 7.04292,2.956951 c 0,0 1.874536,-3.440693 2.634375,-5.107461 0.752238,-1.650094 1.375337,-3.380888 1.720408,-5.161225 0.334808,-1.727391 0.463336,-3.51485 0.322577,-5.268749 -0.117558,-1.464806 -0.119767,-3.10084 -0.96773,-4.301021 -0.659883,-0.9339781 -1.783019,-1.5977599 -2.903189,-1.8279331 -1.350644,-0.2775311 -2.878034,0.195257 -4.085969,0.860204 -1.379404,0.7593381 -1.853461,1.9981261 -2.688137,3.3332911 -0.885665,1.416726 -1.052376,2.969841 -1.290306,4.623596 -0.184878,1.285015 -0.51235,2.714697 -0.215051,3.978444 0.262265,1.114824 0.617528,1.980985 0.752678,3.11824 0.1107,0.931516 -0.322576,2.795663 -0.322576,2.795663 z M 20.429846,40.322064 c 0,0 0.628091,-2.471243 1.397831,-3.440816 0.927466,-1.168246 2.766333,-1.383232 3.655868,-2.580612 0.540728,-0.72786 0.639895,-1.701049 0.860204,-2.580612 0.362214,-1.446106 0.671791,-2.919963 0.752678,-4.408546 0.06429,-1.183205 0.284469,-2.473824 -0.215051,-3.548341 -0.438168,-0.942544 -1.36173,-1.624186 -2.258035,-2.150511 -0.938476,-0.551088 -2.040342,-1.11797 -3.11824,-0.967729 -0.97476,0.135865 -1.759682,0.934892 -2.473087,1.612882 -1.060126,1.007499 -1.827698,2.294531 -2.580612,3.548342 -0.759218,1.264309 -1.464437,2.580936 -1.935459,3.978444 -0.408599,1.212301 -0.657679,2.487617 -0.752678,3.763392 -0.109254,1.467201 0.179199,2.93772 0.215051,4.408546 0.01135,0.465806 0,1.397832 0,1.397832 z m -6.989158,1.935459 6.45153,0.860204 c 0,0 0.536274,3.666304 0,5.376276 -0.300505,0.958194 -0.928797,1.855193 -1.720408,2.473086 -0.876323,0.684016 -2.01578,1.325627 -3.118239,1.182781 -0.917302,-0.118855 -1.686892,-0.88531 -2.258036,-1.612883 -0.715087,-0.91094 -1.21537,-2.070107 -1.290306,-3.225765 -0.09337,-1.440027 1.935459,-5.053699 1.935459,-5.053699 z m 22.311542,-11.935331 7.257972,3.333291 c 0,0 -0.643125,3.637333 -1.720408,5.053699 -0.577756,0.759609 -1.44179,1.373183 -2.365561,1.612882 -1.149588,0.298293 -2.563376,0.341031 -3.548342,-0.322576 -1.10343,-0.74342 -1.566301,-2.24382 -1.827934,-3.548342 -0.176764,-0.881358 -0.09778,-1.845422 0.215051,-2.688138 0.40168,-1.082045 1.989222,-3.440816 1.989222,-3.440816 z" />
    <path
       id="path861"
       style="fill:#ff0000;stroke:#000000;stroke-width:1px;stroke-linecap:butt;stroke-linejoin:miter;stroke-opacity:1"
       d="M 30.429688 130.21289 C 30.429688 130.21289 31.840055 133.31503 31.720703 134.94531 C 31.629293 136.19387 30.884825 137.32724 30.214844 138.38477 C 29.222396 139.9513 27.897307 141.29483 26.558594 142.57812 C 25.398875 143.68983 23.9677 144.49192 22.794922 145.58984 C 21.554067 146.75149 20.281076 147.9279 19.355469 149.35352 C 18.525101 150.63246 18.028552 152.10674 17.527344 153.54688 C 17.112997 154.73743 17.222098 156.59031 17.3125 157.84766 C 17.443789 159.67369 17.746143 161.28179 18.601562 162.90039 C 19.377374 164.36836 20.199173 165.30092 21.398438 166.44922 C 22.686096 167.68216 24.357117 168.49791 26.021484 169.13672 C 27.49152 169.70094 29.073336 170.00204 30.644531 170.10547 C 32.079126 170.19987 33.577298 170.22537 34.945312 169.7832 C 36.705916 169.21413 38.587312 168.39806 40 167.20312 C 41.415864 166.0055 42.47405 164.32958 43.332031 162.68555 C 44.152496 161.11341 44.497964 159.29433 44.623047 157.52539 C 44.745051 155.79998 44.658805 154.31765 44.085938 152.68555 C 43.69081 151.55983 42.890585 150.2892 42.150391 149.35352 C 41.285432 148.26013 40.402966 147.11982 39.246094 146.3418 C 38.445276 145.80324 36.558594 145.26758 36.558594 145.26758 C 36.558594 145.26758 37.283042 147.761 37.203125 149.03125 C 37.149015 149.89125 37.078456 150.91312 36.451172 151.50391 C 35.780361 152.1357 34.667704 152.32697 33.763672 152.14844 C 32.982932 151.99426 31.716305 151.23204 31.181641 150.64258 C 30.51258 149.90495 30.395678 149.16307 30.322266 148.16992 C 30.236896 147.01498 31.03276 145.94739 31.613281 144.94531 C 32.163248 143.99597 33.041849 143.27224 33.65625 142.36328 C 34.303541 141.40566 35.112269 140.47913 35.375 139.35352 C 35.644342 138.19959 35.533203 136.92939 35.160156 135.80469 C 34.76895 134.62524 33.921055 133.63314 33.117188 132.68555 C 32.329535 131.75707 30.429688 130.21289 30.429688 130.21289 z M 26.773438 148.92188 C 26.773438 148.92188 26.41227 151.62437 26.773438 152.90039 C 27.071437 153.95323 27.742446 154.90214 28.494141 155.69727 C 29.184014 156.42701 30.052498 157.00264 30.966797 157.41797 C 31.774086 157.78469 32.662952 158.0248 33.548828 158.0625 C 34.673267 158.1104 35.924469 158.11862 36.880859 157.52539 C 37.928884 156.87527 39.03125 154.51367 39.03125 154.51367 C 39.03125 154.51367 39.331903 157.46467 39.138672 158.92188 C 39.005994 159.92243 38.852933 160.99572 38.279297 161.82617 C 37.639651 162.75219 36.793968 163.65119 35.806641 164.19141 C 34.801945 164.74114 33.505526 164.94426 32.365234 165.05078 C 31.062801 165.17245 29.681136 164.956 28.494141 164.40625 C 27.386432 163.89326 26.470541 162.98719 25.699219 162.04102 C 24.847927 160.99675 24.24216 160.39813 23.763672 159.13867 C 23.424016 158.24464 23.067336 156.65235 23.117188 155.69727 C 23.180408 154.48611 23.735672 153.32897 24.300781 152.25586 C 24.945429 151.03171 26.773438 148.92187 26.773438 148.92188 z " />
    <circle
       id="path865"
       style="fill:#ffff00;stroke:#000000"
       cx="19.462116"
       cy="229.24438"
       r="0" />
    <path
       id="path869"
       style="fill:#ff0000;stroke:#000000;stroke-width:1px;stroke-linecap:butt;stroke-linejoin:miter;stroke-opacity:1"
       d="m 15.483673,206.9866 5.967665,-5.96767 4.354783,4.35478 V 191.61045 H 12.150382 l 4.30102,4.30102 -6.182716,6.18272 z m 3.978443,22.3653 v -7.84936 h 8.171939 v -7.74184 h 8.064413 v -7.41926 h 7.956887 v -8.38699 h 7.956887 v -5.37627 h -12.90306 v 8.17194 h -8.279464 v 8.17194 h -8.064413 v 7.95688 H 14.83852 v 12.58049 z" />
    <path
       style="fill:#ff0000;stroke:#000000;stroke-width:1px;stroke-linecap:butt;stroke-linejoin:miter;stroke-opacity:1"
       d="m 32.902804,250.4269 c 0,0 -9.848161,1.82181 -13.333162,5.0537 -3.162613,2.93292 -5.204545,7.41608 -5.483801,11.72028 -0.267869,4.12868 1.3227,8.48702 3.763393,11.8278 2.229326,3.05146 5.593014,5.59558 9.247193,6.55906 4.110666,1.08384 8.866971,0.573 12.68801,-1.29031 3.303779,-1.61107 7.634311,-7.95688 7.634311,-7.95688 0,0 -5.691632,2.48525 -8.709566,2.47308 -3.062303,-0.0123 -6.289498,-0.8517 -8.817092,-2.58061 -2.426007,-1.65942 -4.340111,-4.23861 -5.376275,-6.98916 -0.974959,-2.58808 -1.094607,-5.57049 -0.537627,-8.27946 0.477773,-2.32373 1.691287,-4.53476 3.225765,-6.344 1.525522,-1.79868 5.698851,-4.1935 5.698851,-4.1935 z"
       id="path871" />
    <path
       style="fill:#ff0000;stroke:#000000;stroke-width:1px;stroke-linecap:butt;stroke-linejoin:miter;stroke-opacity:1"
       d="m 33.01033,325.80228 3.763393,-14.40842 c 0,0 -1.317563,-0.77424 -2.042985,-0.75268 -0.625675,0.0186 -1.720408,0.75268 -1.720408,0.75268 l -16.0213,20.96748 c 0,0 -1.211249,1.51015 -1.075255,2.36556 0.09161,0.57622 1.18278,1.2903 1.18278,1.2903 h 10.752551 l -3.11824,11.82781 c 0,0 0.255723,3.23725 1.505357,3.65586 0.868464,0.29093 2.365561,-1.39783 2.365561,-1.39783 L 44.73061,328.81299 c 0,0 0.761884,-1.56738 0.430102,-2.25803 -0.298536,-0.62144 -1.827934,-0.96773 -1.827934,-0.96773 z"
       id="path873" />
    <path
       id="path875"
       style="fill:#ff0000;stroke:#000000;stroke-width:1px;stroke-linecap:butt;stroke-linejoin:miter;stroke-opacity:1"
       d="M 31.613281 69.890625 C 27.625844 70.067068 23.700262 72.356561 20.859375 75.160156 C 18.657444 77.333183 17.391365 80.372195 16.988281 83.439453 C 16.716256 85.509423 17.144294 88.555632 18.064453 90.429688 C 19.861851 94.090384 21.55736 97.289761 23.978516 100.85938 C 26.270061 104.23789 31.828125 110.21289 31.828125 110.21289 C 31.828125 110.21289 36.785209 104.56563 39.460938 100.42969 C 41.394134 97.441501 44.930622 92.559106 45.914062 89.138672 C 46.420716 87.376515 46.690991 85.454663 46.34375 83.654297 C 45.639484 80.002841 44.144379 76.159929 41.396484 73.654297 C 38.814271 71.29974 35.104398 69.736144 31.613281 69.890625 z M 31.839844 78.386719 A 6.4515305 6.4515305 0 0 1 31.935547 78.386719 A 6.4515305 6.4515305 0 0 1 38.386719 84.837891 A 6.4515305 6.4515305 0 0 1 31.935547 91.289062 A 6.4515305 6.4515305 0 0 1 25.484375 84.837891 A 6.4515305 6.4515305 0 0 1 31.839844 78.386719 z " />
  </g>
</svg>
